
<svg xmlns="http://www.w3.org/2000/svg" data-name="Layer 1" viewBox="0 0 32 32" id="registration-complete"><path fill="#dfe1f0" d="M25.5,31.5H4.5a2,2,0,0,1-2-2V2.5a2,2,0,0,1,2-2h14l7,7v12"></path><path fill="#afaeb3" d="M25.5,7.5h-5a2,2,0,0,1-2-2V.5Z"></path><circle cx="24.5" cy="25.5" r="6" fill="#406fb5"></circle><path fill="#fff" d="M17.5 20H5.5a.5.5 0 0 1 0-1h12a.5.5 0 0 1 0 1zM21.5 17H5.5a.5.5 0 0 1 0-1h16a.5.5 0 0 1 0 1zM15.5 23H5.5a.5.5 0 0 1 0-1h10a.5.5 0 0 1 0 1zM14.5 26h-9a.5.5 0 0 1 0-1h9a.5.5 0 0 1 0 1zM15.5 29H5.5a.5.5 0 0 1 0-1h10a.5.5 0 0 1 0 1z"></path><path fill="#3eb57b" d="M23.793,27.414a.5.5,0,0,1-.354-.146l-1.414-1.414a.5.5,0,0,1,.707-.707l1.061,1.061,2.475-2.475a.5.5,0,0,1,.707.707l-2.828,2.828A.5.5,0,0,1,23.793,27.414Z"></path><path fill="#e23342" d="M11,9.549v4.619a.5.5,0,0,1-.794.4l-.912-.663a.5.5,0,0,0-.588,0l-.912.663a.5.5,0,0,1-.794-.4V9.549Z"></path><rect width="1" height="2" x="8.5" y="10.669" fill="#b72735" rx=".5" ry=".5"></rect><path fill="#fdd331" d="M13.5,7c0,.38-.551.683-.644,1.033s.226.9.042,1.217-.814.31-1.076.571-.249.889-.571,1.076-.854-.139-1.217-.042S9.38,11.5,9,11.5s-.683-.551-1.033-.644-.9.226-1.217.042-.31-.814-.571-1.076S5.289,9.573,5.1,9.25s.139-.854.042-1.217S4.5,7.38,4.5,7s.551-.683.644-1.033-.226-.9-.042-1.217.814-.31,1.076-.571.249-.889.571-1.076.854.139,1.217.042S8.62,2.5,9,2.5s.683.551,1.033.644.9-.226,1.217-.042.31.814.571,1.076.889.249,1.076.571-.139.854-.042,1.217S13.5,6.62,13.5,7Z"></path><circle cx="9" cy="7" r="2.5" fill="#f59831"></circle></svg>