<svg xmlns="http://www.w3.org/2000/svg" width="48" height="48" id="result"><path fill="#8C9EFF" d="M40.5 45.5h-33a1 1 0 0 1-1-1v-38a1 1 0 0 1 1-1h33a1 1 0 0 1 1 1v38a1 1 0 0 1-1 1z"></path><path fill="#0277BD" d="M40.5 46h-33c-.827 0-1.5-.673-1.5-1.5v-38C6 5.673 6.673 5 7.5 5h7.042a.5.5 0 0 1 0 1H7.5a.5.5 0 0 0-.5.5v38a.5.5 0 0 0 .5.5h33a.5.5 0 0 0 .5-.5v-38a.5.5 0 0 0-.5-.5h-6.957a.5.5 0 0 1 0-1H40.5c.827 0 1.5.673 1.5 1.5v38c0 .827-.673 1.5-1.5 1.5z"></path><path fill="#F5F5F5" d="M32.319 42.5H10a.5.5 0 0 1-.5-.5V8a.5.5 0 0 1 .5-.5h28a.5.5 0 0 1 .5.5v29.266a.5.5 0 0 1-.18.384l-5.681 4.734a.495.495 0 0 1-.32.116z"></path><path fill="#FFF" d="M32.675 42H10V8h4.5a.5.5 0 0 1 0 1H11v32h21.325L37 37.26V9h-3.5a.5.5 0 0 1 0-1H38v29.741L32.675 42z"></path><path fill="#0277BD" d="M32.319 43H10c-.551 0-1-.449-1-1V8c0-.551.449-1 1-1h4.5a.5.5 0 0 1 0 1H10v34h22.319L38 37.266V8h-4.5a.5.5 0 0 1 0-1H38c.551 0 1 .449 1 1v29.266c0 .296-.13.576-.358.767l-5.682 4.735c-.18.15-.407.232-.641.232z"></path><path fill="#E8EAF6" d="M7.5 43a.5.5 0 0 1-.5-.5v-34a.5.5 0 0 1 1 0v34a.5.5 0 0 1-.5.5z"></path><path fill="#EEE" d="M32.5 42.073V38a.5.5 0 0 1 .5-.5h4.947a.2.2 0 0 1 .128.354l-5.247 4.373a.2.2 0 0 1-.328-.154z"></path><path fill="#0277BD" d="M32.702 42.774a.704.704 0 0 1-.702-.701V38c0-.551.449-1 1-1h4.947c.299 0 .558.182.659.463a.693.693 0 0 1-.212.776l-5.246 4.372a.697.697 0 0 1-.446.163zM33 38v3.433L37.119 38H33z"></path><path fill="#EEE" d="M26.831 4.5a2.99 2.99 0 0 0-2.816-2 2.989 2.989 0 0 0-2.815 2h-4.185a.5.5 0 0 0-.5.5v4a.5.5 0 0 0 .5.5h14a.5.5 0 0 0 .5-.5V5a.5.5 0 0 0-.5-.5h-4.184z"></path><path fill="#0277BD" d="M31.015 10h-14c-.551 0-1-.449-1-1V5c0-.551.449-1 1-1h3.851a3.5 3.5 0 0 1 3.149-2 3.5 3.5 0 0 1 3.15 2h3.85c.551 0 1 .449 1 1v4c0 .551-.449 1-1 1zm-14-5v4h14V5h-4.184a.5.5 0 0 1-.471-.333A2.5 2.5 0 0 0 24.015 3c-1.048 0-1.99.67-2.344 1.667a.5.5 0 0 1-.472.333h-4.184z"></path><path fill="#FFF" d="M17.515 8a.5.5 0 0 1-.5-.5V5h4.184a.5.5 0 0 0 .471-.333A2.5 2.5 0 0 1 24.015 3a.5.5 0 0 1 0 1 1.5 1.5 0 0 0-1.403 1.002c-.212.597-.78.998-1.414.998h-3.184v1.5a.499.499 0 0 1-.499.5z"></path><path fill="#0277BD" d="M18.5 35h-4a.5.5 0 0 1-.5-.5v-4a.5.5 0 0 1 .5-.5h4a.5.5 0 0 1 .5.5v4a.5.5 0 0 1-.5.5zM15 34h3v-3h-3v3zm3.5-7h-4a.5.5 0 0 1-.5-.5v-4a.5.5 0 0 1 .5-.5h4a.5.5 0 0 1 .5.5v4a.5.5 0 0 1-.5.5zM15 26h3v-3h-3v3zm3.5-7h-4a.5.5 0 0 1-.5-.5v-4a.5.5 0 0 1 .5-.5h4a.5.5 0 0 1 .5.5v4a.5.5 0 0 1-.5.5zM15 18h3v-3h-3v3zm18.5 16h-12a.5.5 0 0 1 0-1h12a.5.5 0 0 1 0 1zm0-2h-12a.5.5 0 0 1 0-1h12a.5.5 0 0 1 0 1zm0-6h-12a.5.5 0 0 1 0-1h12a.5.5 0 0 1 0 1zm0-2h-12a.5.5 0 0 1 0-1h12a.5.5 0 0 1 0 1zm0-6h-12a.5.5 0 0 1 0-1h12a.5.5 0 0 1 0 1zm0-2h-12a.5.5 0 0 1 0-1h12a.5.5 0 0 1 0 1z"></path></svg>
